<?xml version="1.0" encoding="UTF-8"?>
<svg viewBox="0 0 273.80127 500.74579" xmlns="http://www.w3.org/2000/svg">
 <g opacity=".98">
  <g transform="matrix(.5 0 0 .5 -28.399 -17.594)" stroke="#000">
   <path d="m254.29 365.22-101.43 141.43 61.113 51.801 19.601-31.086 20.714-162.14z" fill="#fff" fill-rule="evenodd" stroke-linecap="round" stroke-linejoin="round" stroke-width="5"/>
   <path d="m108.44 530.84c-16.507 0.45367-34.422 15.217-43.562 37.594-9.1344 22.362-6.6965 45.449 4.75 57.344l6.3125-12.156c-7.3207-9.1792-8.5868-25.334-2.1875-41 6.7393-16.498 19.941-27.414 32.125-27.875 2.8116-0.10627 5.5731 0.33833 8.1875 1.4062 13.943 5.6956 18.513 26.819 10.219 47.125-5.0914 12.464-13.859 21.726-23.094 25.719l-0.96875 12.625c13.038-4.9682 25.59-17.815 32.75-35.344 11.182-27.376 5.0167-55.821-13.781-63.5-2.9372-1.1998-6.0201-1.8464-9.1562-1.9375-0.52922-0.01537-1.0613-0.01463-1.5938 0z" fill="#ff0" stroke-linecap="round" stroke-linejoin="round" stroke-width="5"/>
   <path d="m439.28 654.5-0.34375 1.5c0.32115 0.11644 0.65068 0.21382 0.96875 0.34375 18.798 7.6786 24.964 36.124 13.781 63.5-8.0938 19.814-24.843 35.077-39.629 38.304l49.504 19.915c25.244 0.37308 48.242-4.8909 62.156-32.844 5.1461-16.819 6.8523-34.403-5-55-26.032 0.057-40.696-12.854-53.562-27.844l-27.875-7.875z" fill="#fff" fill-rule="evenodd" stroke-linecap="round" stroke-linejoin="round" stroke-width="5"/>
   <path transform="matrix(.68667 .28049 -.28049 .68667 330.75 106.13)" d="m453.57 703.08c0.2607 18.528-4.5203 31.724-15.568 42.633-10.688 1.1558-28.972 6.3123-36.631 6.3123-13.165-9.5386-20.489-20.554-21.373-48.945-0.9201-29.557 16.48-53.571 36.786-53.571s36.786 24 36.786 53.571z" fill="#fff" stroke-linecap="round" stroke-linejoin="round" stroke-width="6.7408"/>
   <path transform="matrix(.68667 .28049 -.28049 .68667 10.034 -16.73)" d="m453.57 703.08c0 18.69-6.5831 35.154-16.555 44.741-11.01 3.0261-21.367 5.5853-30.967 8.0149-11.253-6.9398-24.611-24.287-26.05-52.756-1.493-29.534 16.48-53.571 36.786-53.571s36.786 24 36.786 53.571z" fill="#ff0" stroke-linecap="round" stroke-linejoin="round" stroke-width="6.7408"/>
   <path d="m396.43 735.22-5.7143 14.643 25.357 5.3571 4.6429-13.571-24.286-6.4286z" fill="#fff" fill-rule="evenodd" stroke-linecap="round" stroke-linejoin="round" stroke-width="5"/>
   <path d="m118.56 530.94-0.3125 1.5c0.31191 0.11349 0.6285 0.21753 0.9375 0.34375 18.798 7.6786 24.964 36.124 13.781 63.5-7.7054 18.864-21.639 32.312-35.719 36.344l4.192 0.08036 44.277 19.67c32.455 0.9412 50.361-11.463 60-31.438 7.5577-20.75 5.0511-39.497-6.4375-56.438l-1.125-0.59375-0.3125 0.59375c-27.594 0.31861-34.233-17.306-50-27.125l0.3125-0.53125-0.3125-0.1875-29.281-5.7188z" fill="#ff0" fill-rule="evenodd" stroke-linecap="round" stroke-linejoin="round" stroke-width="5"/>
   <path d="m162.14 515.22-14.286 22.143c15.767 9.819 22.406 27.461 50 27.143l7.8572-13.571-43.571-35.714z" fill="#ff0" fill-rule="evenodd" stroke-linecap="round" stroke-linejoin="round" stroke-width="5"/>
   <path d="m76.429 614.86-6.0714 12.143 30.357 4.6429 0.71428-12.5-25-4.2857z" fill="#ff0" fill-rule="evenodd" stroke-linecap="round" stroke-linejoin="round" stroke-width="5"/>
   <path d="m439.28 654.5-0.34375 1.5c0.32115 0.11644 0.65068 0.21382 0.96875 0.34375 18.798 7.6786 24.964 36.124 13.781 63.5-8.0938 19.814-24.843 35.077-39.629 38.304l49.504 19.915c25.244 0.37308 48.242-4.8909 62.156-32.844 5.1461-16.819 6.8523-34.403-5-55-26.032 0.057-40.696-12.854-53.562-27.844l-27.875-7.875z" fill="#fff" fill-rule="evenodd" stroke-linecap="round" stroke-linejoin="round" stroke-width="5"/>
   <path d="m439.28 654.5-0.34375 1.5c0.32115 0.11644 0.65068 0.21382 0.96875 0.34375 18.798 7.6786 24.964 36.124 13.781 63.5-8.0938 19.814-24.843 35.077-39.629 38.304l49.504 19.915c25.244 0.37308 48.242-4.8909 62.156-32.844 5.1461-16.819 6.8523-34.403-5-55-26.032 0.057-40.696-12.854-53.562-27.844l-27.875-7.875z" fill="#fff" fill-rule="evenodd" stroke-linecap="round" stroke-linejoin="round" stroke-width="5"/>
   <path d="m494.26 841.24c-35.077-27.611-29.853-64.382-27.274-80.812 2.6732-17.031 15.23-48.841 58.589-60.609 40.03-10.865 56.152 25.229 62.629 62.629l-3.0304 225.26-122.23 45.457v-64.65l29.294-14.142 2.0203-113.14z" fill="#00f" fill-rule="evenodd" stroke-linecap="round" stroke-linejoin="round" stroke-width="5"/>
   <path d="m264.85 160.06c13.125-29.908 20.104-60.933 61.429-85.714l45.194-19.898c24.288-16.98 52.156-16.743 80.55-0.41842l34.256 16.031c22.757 16.127 43.578 25.936 60 80 13.224 23.668 21.286 43.094 13.204 55.123-14.634 21.78-28.757 29.708-46.061 37.735-68.095 18.993-136.19 27.905-204.29 20-33.16-6.7143-72.216-5.9238-77.143-48.571-6.8769-19.716 10.398-37.237 32.857-54.286z" fill="#f00" fill-rule="evenodd" stroke-linecap="round" stroke-linejoin="round" stroke-width="5"/>
   <path d="m525.28 236.28c-3.0916 1.6187-6.2654 3.1268-9.5625 4.6562-68.095 18.993-136.19 27.905-204.28 20-6.4533-1.3067-13.145-2.3238-19.75-3.4375l-0.75 52.406c9.3782 20.412 21.27 39.702 54.531 49.5 53.433 7.1726 106.8 13.188 157.59-19.188 35.877-36.831 17.456-69.5 22.219-103.94z" fill="#ff0" fill-rule="evenodd" stroke-linecap="round" stroke-linejoin="round" stroke-width="5"/>
   <path d="m482.34 351.31c-44.494 19.617-90.662 14.297-136.88 8.0938-3.0158-0.88835-5.8527-1.8681-8.5312-2.9062l0.46875 14c50.655 22.446 100.16 26.683 145.44-2l-0.5-17.188z" fill="#ff0" fill-rule="evenodd" stroke-linecap="round" stroke-linejoin="round" stroke-width="5"/>
   <path d="m303.66 332.06-44.062 18.25 176.78 70.719 125.28-51.531-66.594-24.531c-4.2277 2.3522-8.4576 4.4651-12.719 6.3438l0.5 17.188c-45.273 28.683-94.782 24.446-145.44 2l-0.46875-14c-15.715-6.091-25.854-14.667-33.281-24.438zm163.84 24.875c-0.91869 0.29474-1.8301 0.59875-2.75 0.875 0.92168-0.27674 1.8296-0.57969 2.75-0.875z" fill="#fff" fill-rule="evenodd" stroke-linecap="round" stroke-linejoin="round" stroke-width="5"/>
   <path d="m256.58 349.3-33.335 254.56 244.46 92.934-32.325-278.8-178.8-68.69z" fill="#fff" fill-rule="evenodd" stroke-linecap="round" stroke-linejoin="round" stroke-width="5"/>
   <path d="m468.71 696.79 128.29-47.477-36.365-279.81-126.27 51.518 34.345 275.77z" fill="#fff" fill-rule="evenodd" stroke-linecap="round" stroke-linejoin="round" stroke-width="5"/>
   <path d="m231.32 607.9v51.518l233.35 85.863v-48.487l-233.35-88.893z" fill="#00f" fill-rule="evenodd" stroke-linecap="round" stroke-linejoin="round" stroke-width="5"/>
   <path d="m590.94 652.34-124.25 45.469v50.5l4.875-2.0312c6.5142-16.844 21.647-37.492 54.719-46.469 16.751-4.5465 29.296-0.83502 38.719 7.7188l25.938-10.75v-44.438z" fill="#00f" fill-rule="evenodd" stroke-linecap="round" stroke-linejoin="round" stroke-width="5"/>
   <path d="m348.43 703.14c-16.738 29.192-11.531 70.551 13.196 89.612l-2 113.12-29.312 14.156v64.656l18.433-7.8884v-52.92l31.781-15.196 1.317-108.87c-9.1012-7.7324-34.055-59.534-8.8845-87.591-9.4105-3.2557-13.33-5.8761-24.53-9.0828z" fill="#00f" fill-rule="evenodd" stroke-linecap="round" stroke-linejoin="round" stroke-width="5"/>
   <path d="m349.96 922.97 0.06128 66.262 114.15 44.952v-66.165l-114.21-45.049z" fill="#00f" fill-rule="evenodd" stroke-linecap="round" stroke-linejoin="round" stroke-width="5"/>
   <path d="m350.52 924.07 30.81-15.152 113.14 44.952-30.81 14.647-113.14-44.447z" fill="#00f" fill-rule="evenodd" stroke-linecap="round" stroke-linejoin="round" stroke-width="5"/>
   <path d="m383.35 800.83-2.0203 109.6 112.13 43.942 1.5152-112.13-111.62-41.416z" fill="#00f" fill-rule="evenodd" stroke-linecap="round" stroke-linejoin="round" stroke-width="5"/>
   <path d="m361.43 795.22c-28.179-28.824-27.881-60.236-14.286-92.857l-105-37.143c-14.06 30.924-7.7623 59.304 8.5714 86.429l110.71 43.571z" fill="#00f" fill-rule="evenodd" stroke-linecap="round" stroke-linejoin="round" stroke-width="5"/>
   <path d="m491.43 842.36c-28.179-28.824-31.453-60.95-21.429-95l-97.857-35c-14.06 30.924-14.191 49.304 8.5714 86.429l110.71 43.571z" fill="#00f" fill-rule="evenodd" stroke-linecap="round" stroke-linejoin="round" stroke-width="5"/>
   <path d="m250.71 753.08-0.71429 107.14 111.43 43.571v-109.29l-110.71-41.429z" fill="#00f" fill-rule="evenodd" stroke-linecap="round" stroke-linejoin="round" stroke-width="5"/>
   <path d="m250 860.93-32.143 10.714 113.57 47.143 29.286-13.571-110.71-44.286z" fill="#00f" fill-rule="evenodd" stroke-linecap="round" stroke-linejoin="round" stroke-width="5"/>
   <path d="m215.71 870.93-0.71429 65.714 115 49.286v-67.143l-114.29-47.857z" fill="#00f" fill-rule="evenodd" stroke-linecap="round" stroke-linejoin="round" stroke-width="5"/>
   <path d="m439.28 654.5-0.34375 1.5c0.32115 0.11644 0.65068 0.21382 0.96875 0.34375 18.798 7.6786 24.964 36.124 13.781 63.5-8.0938 19.814-24.843 35.077-39.629 38.304l49.504 19.915c25.244 0.37308 48.242-4.8909 62.156-32.844 5.1461-16.819 6.8523-34.403-5-55-26.032 0.057-40.696-12.854-53.562-27.844l-27.875-7.875z" fill="#ff0" fill-rule="evenodd" stroke-linecap="round" stroke-linejoin="round" stroke-width="5"/>
   <path d="m430.28 654.41c-0.47126-0.00577-0.93243 0.01334-1.4062 0.03125-16.426 0.62083-34.196 15.351-43.281 37.594-9.1263 22.342-6.7016 45.384 4.7188 57.281l5.625-13.781c-6.6822-9.3064-7.6537-24.89-1.4688-40.031 6.9985-17.133 20.938-28.271 33.5-27.906 2.3262 0.06758 4.6026 0.54757 6.7812 1.4375 13.943 5.6956 18.545 26.788 10.25 47.094-5.333 13.056-14.694 22.599-24.406 26.25l-6 14.594c15.181-2.7074 30.775-16.761 39.094-37.125 11.182-27.376 5.0167-55.821-13.781-63.5-3.084-1.2598-6.3262-1.8971-9.625-1.9375z" fill="#ff0" stroke-linecap="round" stroke-linejoin="round" stroke-width="5"/>
   <path d="m474.29 643.79-8.5714 20c9.7218 5.8642 30.96 30.119 54.286 25.714l10-20c-12.857-17.143-31.429-25.714-55.714-25.714z" fill="#ff0" fill-rule="evenodd" stroke-linecap="round" stroke-linejoin="round" stroke-width="5"/>
   <path d="m445.59 715.41c-5.3678 12.828-14.725 22.283-24.489 26.066-8.6101-1.0098-16.627-5.0127-24.074-6.0366-5.9189-7.9181-10.329-20.714-3.1644-40.656 7.4324-20.689 26.973-32.148 41.249-26.455s18.971 26.786 10.478 47.082z" fill="#ff0" stroke-linecap="round" stroke-linejoin="round" stroke-width="5"/>
   <path d="m544.29 672.36 51.429-112.86c11.034-24.214 5.8792-41.697-4.2857-61.429l-24.286-47.143c-10.147-24.208-33.706-54.354-67.143-40-29.687 12.745-33.872 52.803-28.571 81.429l28.571 67.143-37.143 80c38.604-5.0938 61.682 11.55 81.429 32.857z" fill="#fff" fill-rule="evenodd" stroke-linecap="round" stroke-linejoin="round" stroke-width="5"/>
   <path d="m476.09 637.16c-4.0593 0.02832-8.241 0.31705-12.531 0.90625-3.3474 0 0.1355 5.8614 7.6562 12.844l3.0625-7.125c24.286 0 42.862 8.5759 55.719 25.719l-4.9688 9.9375c10.836 3.3399 19.63 3.6279 20.688-4.9375-18.369-24.199-41.21-37.542-69.625-37.344z" fill="#fff" fill-rule="evenodd" stroke-linecap="round" stroke-linejoin="round" stroke-width="5"/>
   <path d="m358.1 283.64a7.5761 10.102 0 1 1 -15.152 0 7.5761 10.102 0 1 1 15.152 0z" stroke-linecap="round" stroke-linejoin="round" stroke-width="5"/>
   <path d="m304.34 259.62c-1.7181 1.8523-2.8125 4.6705-2.8125 7.8438 0 5.576 3.3805 10.094 7.5625 10.094s7.5938-4.5177 7.5938-10.094c0-2.3104-0.61373-4.4225-1.5938-6.125-1.2209-0.13096-2.4354-0.26452-3.6562-0.40625-2.3358-0.47297-4.7134-0.8962-7.0938-1.3125z" stroke-linecap="round" stroke-linejoin="round" stroke-width="5"/>
   <path d="m435.38 43.531c6.2617 2.0289 12.589 4.8501 18.938 8.5l34.25 16.031c2.2496 1.5941 4.4781 3.1367 6.6875 4.6562-3.8291-14.049-28.003-25.526-59.875-29.188zm-44.906 0.15625c-29.608 3.6198-52.308 13.998-57.812 26.875l41.125-18.094c5.4012-3.7761 10.966-6.6956 16.688-8.7812z" fill="#f00" stroke-linecap="round" stroke-linejoin="round" stroke-width="5"/>
   <path d="m409.64 38.321c-13.552 0.02264-26.575 4.2286-38.719 12.719l-43.076 20.621c-32.473 15.926-57.716 60.855-60.683 83.183-7.8274 28.967 21.674 61.187 67.478 69.915 26.625 5.5322 81.903 8.831 108.12 5.0312 65.846-9.5416 94.788-26.828 105.94-73.969-6.3976-25.052-23.646-73.639-63-89.188l-34.25-16.031c-14.197-8.1623-28.26-12.304-41.812-12.281z" fill="#f00" fill-rule="evenodd" stroke-linecap="round" stroke-linejoin="round" stroke-width="5"/>
   <path d="m562.11 191.21c-0.48083 3.404-3.5386 8.7868-5.1959 13.724-22.071 17.795-53.352 26.758-95.742 37.494-69.603 17.629-205.51 4.9128-229.15-36.31 2.2672 46.836 39.859 49.134 76.554 55.528 72.547 10.873 165.03 8.3991 216.95-21.381 16.973-8.6826 36.353-28.124 36.585-49.057z" fill="#f00" fill-rule="evenodd" stroke-linecap="round" stroke-linejoin="round" stroke-width="5"/>
   <path d="m363.57 53.076c6.5032 14.79 27.924 18.464 49.286 20 30.818-0.73559 45.106-11.206 45.714-17.857-29.81-22.061-61.381-23.886-95-2.1429z" fill="none" stroke-width="5"/>
   <path d="m374.51 64.767c-40.052 41.891-64.694 90.706-72.369 149.74 7.619 4.4112 15.238 6.8269 22.857 7.3333 2.5038-60.792 22.701-109.61 65.19-151.36-9.0066-8.5205-11.556-5.7415-15.679-5.7143z" fill="#f00" fill-rule="evenodd" stroke-width="5"/>
   <path d="m402.14 72.362-0.71429 158.57h19.286l-1.4286-157.86c-10.816-7.3808-12.186-1.5361-17.143-0.71429z" fill="#f00" fill-rule="evenodd" stroke-width="5"/>
   <path d="m278.57 444.51-49.286 162.14 167.86 63.571c14.24-14.771 30.765-21.162 50.714-15l-36.429-159.29-132.86-51.429z" fill="#00f" fill-rule="evenodd" stroke-width="5"/>
   <path d="m267.86 354.51 9.2857 73.571 22.143 7.8571-2.8571-72.143-28.571-9.2857z" fill="#00f" fill-rule="evenodd" stroke-width="5"/>
   <path d="m396.43 402.36-5 69.286 18.571 7.1429 15-63.571-28.571-12.857z" fill="#00f" fill-rule="evenodd" stroke-width="5"/>
   <path d="m298.57 439.86a11.071 15.357 0 1 1 -22.143 0 11.071 15.357 0 1 1 22.143 0z" fill="#00f" stroke-linecap="round" stroke-linejoin="round" stroke-width="5"/>
   <path transform="translate(112.14 43.571)" d="m298.57 439.86a11.071 15.357 0 1 1 -22.143 0 11.071 15.357 0 1 1 22.143 0z" fill="#00f" stroke-linecap="round" stroke-linejoin="round" stroke-width="5"/>
   <path d="m302.86 498.79-0.71428 97.143 87.143 32.143-1.4286-98.571-85-30.714z" fill="#00f" fill-rule="evenodd" stroke-width="5"/>
   <path d="m302.86 498.79v39.286l40.714 41.429 44.286-11.429v-37.143l-85-32.143z" fill="#00f" fill-rule="evenodd" stroke-width="5"/>
   <path d="m397.41 736.35-6.0714 12.143 24.145 5.3332 4.1657-11.81-22.239-5.6663z" fill="#ff0" fill-rule="evenodd" stroke-linecap="round" stroke-linejoin="round" stroke-width="5"/>
   <path d="m550.6 156.05c8.746 18.705 9.6038 17.494 10.748 37.792-5.3295 22.259-58.874 40.129-80.712 47.158-26.798 8.6261-97.956 13.072-156.45 4.9384-48.256-6.71-87.115-22.917-92.183-44.19 11.167-26.299 11.913-27.978 33.18-40.819-1.5494 30.371 27.09 58.107 72.325 64.545 31.279 4.4513 86.368 8.4437 108.12 5.0112 67.993-10.727 94.755-29.629 104.97-74.435z" fill="#f00" stroke-linecap="round" stroke-linejoin="round" stroke-width="5"/>
   <path d="m446.43 65.934c40.052 41.891 63.265 79.956 70.94 138.99-6.3599 4.2019-11.849 8.9843-21.917 10.714-2.5038-60.792-23.677-102.24-66.167-143.99 4.0318-3.5873 8.0324-7.2057 17.143-5.7143z" fill="#f00" fill-rule="evenodd" stroke-width="5"/>
   <path d="m370.71 61.648c-72.07 29.31-86.038 77.987-96.429 127.86-6.1316-9.5406-11.408-19.326-8.5714-31.429 16.763-58.001 50.128-90.307 97.333-104.55l7.6667 8.1191z" fill="#f00" fill-rule="evenodd" stroke-width="5"/>
   <path d="m453.57 61.648c70.93 31.59 73.827 71.778 84.964 120.15 5.256-7.4265 8.6843-16.681 10.036-28.012-16.666-60.706-40.242-81.431-89.667-100.71-8.1443 2.8571-5.8847 5.7143-5.3334 8.5714z" fill="#f00" fill-rule="evenodd" stroke-width="5"/>
   <path d="m307.95 313.51c10.317 19.08 25.948 20.447 43.664 14.864" fill="none" stroke-linecap="round" stroke-width="8"/>
  </g>
 </g>
</svg>
